# xmcd
#
# Track frame offsets: 
#        150
#        13386
#        25565
#        37157
#        49014
#        61662
#        73926
#        85022
#        98258
#        110900
#        123509
#        135306
#        147023
#        158396
#        172218
#        184538
#        195449
#        206912
#        220393
#        232364
#        244635
#        257360
#        270100
#
# Disc length: 3770 seconds
#
# Revision: 0
# Processed by: cddbd v1.5.2PL0 Copyright (c) Steve Scherf et al.
# Submitted via: ExactAudioCopyFreeDBPlugin 1.0
#
DISCID=3d0eb817
DTITLE=Wynonie Harris - Don't You Want To Rock: The King and Deluxe Acet
DTITLE=ate Series [CD1]
DYEAR=2015
DGENRE=R&B
TTITLE0=Love Is Like Rain
TTITLE1=Rose Get Your Clothes
TTITLE2=Wynonie's Boogie
TTITLE3=Your Money Don't Mean A Thing
TTITLE4=Good Morning Mr Blues
TTITLE5=Blow Your Brains Out
TTITLE6=Blowin' To California
TTITLE7=Crazy Love (Comes Love)
TTITLE8=Bite Again, Bite Again
TTITLE9=Lollipop Mama
TTITLE10=I Believe I'll Fall In Love
TTITLE11=Grandma Plays The Numbers
TTITLE12=She Just Won't Sell No More
TTITLE13=I Want My Fanny Brown
TTITLE14=I Feel That Old Age Comin' On
TTITLE15=Drinkin' Wine Spo-Dee-O-Dee
TTITLE16=All She Wants To Do Is Rock
TTITLE17=I Can't Take It No More
TTITLE18=Sittin' On It All The Time
TTITLE19=I Like My Baby's Pudding
TTITLE20=Baby, Shame On You
TTITLE21=Oh Babe!
TTITLE22=Teardrops From My Eyes
EXTD=
EXTT0=
EXTT1=
EXTT2=
EXTT3=
EXTT4=
EXTT5=
EXTT6=
EXTT7=
EXTT8=
EXTT9=
EXTT10=
EXTT11=
EXTT12=
EXTT13=
EXTT14=
EXTT15=
EXTT16=
EXTT17=
EXTT18=
EXTT19=
EXTT20=
EXTT21=
EXTT22=
PLAYORDER=
